<svg width="990" height="770" xmlns="http://www.w3.org/2000/svg" xmlns:xlink="http://www.w3.org/1999/xlink" xml:space="preserve" overflow="hidden"><defs><filter id="fx0" x="-10%" y="-10%" width="120%" height="120%" filterUnits="userSpaceOnUse" primitiveUnits="userSpaceOnUse"><feComponentTransfer color-interpolation-filters="sRGB"><feFuncR type="discrete" tableValues="0.000000 0.000000"/><feFuncG type="discrete" tableValues="0.000000 0.000000"/><feFuncB type="discrete" tableValues="0.000000 0.000000"/><feFuncA type="linear" slope="0.909804" intercept="0.000000"/></feComponentTransfer><feGaussianBlur stdDeviation="6.111111 6.111111"/></filter><clipPath id="clip1"><path d="M6242 3089.5C6114.15 3089.5 6010.5 3165.39 6010.5 3259 6010.5 3352.61 6114.15 3428.5 6242 3428.5 6369.85 3428.5 6473.5 3352.61 6473.5 3259 6473.5 3165.39 6369.85 3089.5 6242 3089.5ZM5765 2860 6755 2860 6755 3630 5765 3630Z" fill-rule="evenodd" clip-rule="evenodd"/></clipPath><clipPath id="clip2"><rect x="1.29688" y="1.51782" width="367.406" height="279.631"/></clipPath></defs><g transform="translate(-5765 -2860)"><g><path d="M6140.5 3600C6140.5 3585.36 6189.08 3573.5 6249 3573.5 6308.92 3573.5 6357.5 3585.36 6357.5 3600 6357.5 3614.64 6308.92 3626.5 6249 3626.5 6189.08 3626.5 6140.5 3614.64 6140.5 3600Z" stroke="#172C51" stroke-width="4.58333" stroke-linecap="butt" stroke-linejoin="miter" stroke-miterlimit="8" stroke-opacity="1" fill="#FFF2CC" fill-rule="evenodd" fill-opacity="1"/><path d="M6182.5 3600C6182.5 3589.78 6212.72 3581.5 6250 3581.5 6287.28 3581.5 6317.5 3589.78 6317.5 3600 6317.5 3610.22 6287.28 3618.5 6250 3618.5 6212.72 3618.5 6182.5 3610.22 6182.5 3600Z" stroke="#172C51" stroke-width="4.58333" stroke-linecap="butt" stroke-linejoin="miter" stroke-miterlimit="8" stroke-opacity="1" fill="#FFFFFF" fill-rule="evenodd" fill-opacity="1"/><path d="M6098.5 2968.5C6098.5 2909.96 6162.3 2862.5 6241 2862.5 6319.7 2862.5 6383.5 2909.96 6383.5 2968.5 6383.5 3027.04 6319.7 3074.5 6241 3074.5 6162.3 3074.5 6098.5 3027.04 6098.5 2968.5Z" stroke="#172C51" stroke-width="4.58333" stroke-linecap="butt" stroke-linejoin="miter" stroke-miterlimit="8" stroke-opacity="1" fill="#FFFFFF" fill-rule="evenodd" fill-opacity="1"/><g clip-path="url(#clip1)"><g clip-path="url(#clip2)" filter="url(#fx0)" transform="translate(6057 3136)"><g><g><path d="M21.1304 141.333C21.1304 75.069 94.4973 21.3511 185 21.3511 275.503 21.3511 348.87 75.069 348.87 141.333 348.87 207.598 275.503 261.316 185 261.316 94.4973 261.316 21.1304 207.598 21.1304 141.333Z" stroke="#172C51" stroke-width="3" stroke-linecap="butt" stroke-linejoin="miter" stroke-miterlimit="8" stroke-opacity="1" fill="#FFFFFF" fill-rule="evenodd" fill-opacity="1"/></g></g></g></g><path d="M6010.5 3259C6010.5 3165.39 6114.15 3089.5 6242 3089.5 6369.85 3089.5 6473.5 3165.39 6473.5 3259 6473.5 3352.61 6369.85 3428.5 6242 3428.5 6114.15 3428.5 6010.5 3352.61 6010.5 3259Z" stroke="#172C51" stroke-width="4.58333" stroke-linecap="butt" stroke-linejoin="miter" stroke-miterlimit="8" stroke-opacity="1" fill="#FFFFFF" fill-rule="evenodd" fill-opacity="1"/><path d="M5894.72 3254.24C5926.03 3238.76 5975.33 3274.57 6004.82 3334.22 6034.31 3393.87 6032.84 3454.78 6001.52 3470.26 5970.21 3485.74 5920.91 3449.94 5891.42 3390.29 5861.93 3330.64 5863.4 3269.73 5894.72 3254.24Z" stroke="#172C51" stroke-width="4.58333" stroke-linecap="butt" stroke-linejoin="miter" stroke-miterlimit="8" stroke-opacity="1" fill="#FFFFFF" fill-rule="evenodd" fill-opacity="1"/><path d="M5850.97 3153.46C5871.28 3143.42 5895.9 3151.74 5905.94 3172.06 5915.99 3192.38 5907.66 3216.99 5887.34 3227.03 5867.03 3237.08 5842.41 3228.75 5832.37 3208.44 5822.32 3188.12 5830.65 3163.51 5850.97 3153.46Z" stroke="#172C51" stroke-width="4.58333" stroke-linecap="butt" stroke-linejoin="miter" stroke-miterlimit="8" stroke-opacity="1" fill="#FFFFFF" fill-rule="evenodd" fill-opacity="1"/><path d="M6598.69 3259.12C6628.68 3277.03 6625.33 3337.87 6591.2 3395 6557.08 3452.13 6505.11 3483.92 6475.12 3466 6445.12 3448.09 6448.47 3387.26 6482.6 3330.13 6516.72 3273 6568.69 3241.21 6598.69 3259.12Z" stroke="#172C51" stroke-width="4.58333" stroke-linecap="butt" stroke-linejoin="miter" stroke-miterlimit="8" stroke-opacity="1" fill="#FFFFFF" fill-rule="evenodd" fill-opacity="1"/><path d="M6659.63 3167.71C6679.09 3179.33 6685.44 3204.52 6673.82 3223.98 6662.2 3243.44 6637.01 3249.79 6617.55 3238.17 6598.09 3226.55 6591.74 3201.35 6603.36 3181.9 6614.98 3162.44 6640.18 3156.09 6659.63 3167.71Z" stroke="#172C51" stroke-width="4.58333" stroke-linecap="butt" stroke-linejoin="miter" stroke-miterlimit="8" stroke-opacity="1" fill="#FFFFFF" fill-rule="evenodd" fill-opacity="1"/><path d="M6089.5 3548.5C6089.5 3528.07 6160.24 3511.5 6247.5 3511.5 6334.76 3511.5 6405.5 3528.07 6405.5 3548.5 6405.5 3568.93 6334.76 3585.5 6247.5 3585.5 6160.24 3585.5 6089.5 3568.93 6089.5 3548.5Z" stroke="#172C51" stroke-width="4.58333" stroke-linecap="butt" stroke-linejoin="miter" stroke-miterlimit="8" stroke-opacity="1" fill="#FFF2CC" fill-rule="evenodd" fill-opacity="1"/><path d="M6150.5 3548.5C6150.5 3534.69 6194.6 3523.5 6249 3523.5 6303.4 3523.5 6347.5 3534.69 6347.5 3548.5 6347.5 3562.31 6303.4 3573.5 6249 3573.5 6194.6 3573.5 6150.5 3562.31 6150.5 3548.5Z" stroke="#172C51" stroke-width="4.58333" stroke-linecap="butt" stroke-linejoin="miter" stroke-miterlimit="8" stroke-opacity="1" fill="#FFFFFF" fill-rule="evenodd" fill-opacity="1"/><path d="M6071.5 3501C6071.5 3471.45 6149.63 3447.5 6246 3447.5 6342.37 3447.5 6420.5 3471.45 6420.5 3501 6420.5 3530.55 6342.37 3554.5 6246 3554.5 6149.63 3554.5 6071.5 3530.55 6071.5 3501Z" stroke="#172C51" stroke-width="4.58333" stroke-linecap="butt" stroke-linejoin="miter" stroke-miterlimit="8" stroke-opacity="1" fill="#FFF2CC" fill-rule="evenodd" fill-opacity="1"/><path d="M6138.5 3501C6138.5 3480.84 6187.08 3464.5 6247 3464.5 6306.92 3464.5 6355.5 3480.84 6355.5 3501 6355.5 3521.16 6306.92 3537.5 6247 3537.5 6187.08 3537.5 6138.5 3521.16 6138.5 3501Z" stroke="#172C51" stroke-width="4.58333" stroke-linecap="butt" stroke-linejoin="miter" stroke-miterlimit="8" stroke-opacity="1" fill="#FFFFFF" fill-rule="evenodd" fill-opacity="1"/><path d="M6125.5 2955C6125.5 2930.98 6144.98 2911.5 6169 2911.5L6309 2911.5C6333.02 2911.5 6352.5 2930.98 6352.5 2955 6352.5 2979.02 6333.02 2998.5 6309 2998.5L6169 2998.5C6144.98 2998.5 6125.5 2979.02 6125.5 2955Z" stroke="#172C51" stroke-width="4.58333" stroke-linecap="butt" stroke-linejoin="miter" stroke-miterlimit="8" stroke-opacity="1" fill="#E7E6E6" fill-rule="evenodd" fill-opacity="1"/><rect x="6176.5" y="2929.5" width="24" height="51.0002" stroke="#172C51" stroke-width="4.58333" stroke-linecap="butt" stroke-linejoin="miter" stroke-miterlimit="8" stroke-opacity="1" fill="#02B0EE" fill-opacity="1"/><rect x="6279.5" y="2929.5" width="23.9995" height="53" stroke="#172C51" stroke-width="4.58333" stroke-linecap="butt" stroke-linejoin="miter" stroke-miterlimit="8" stroke-opacity="1" fill="#02B0EE" fill-opacity="1"/><path d="M6600.07 2992.47C6591.13 2990.51 6581.87 2990.51 6572.93 2992.47 6571.11 2996.84 6570.02 3001.48 6569.69 3006.2 6563.6 3008.32 6557.97 3011.58 6553.08 3015.79 6548.83 3013.72 6544.27 3012.34 6539.57 3011.73 6533.41 3018.5 6528.78 3026.52 6526 3035.24 6528.88 3039 6532.35 3042.26 6536.28 3044.91 6535.07 3051.25 6535.07 3057.75 6536.28 3064.09 6532.35 3066.74 6528.88 3070 6526 3073.76 6528.78 3082.48 6533.41 3090.5 6539.57 3097.27 6544.27 3096.66 6548.83 3095.28 6553.08 3093.21 6557.97 3097.42 6563.6 3100.68 6569.69 3102.8 6570.02 3107.52 6571.11 3112.16 6572.93 3116.53 6581.87 3118.49 6591.13 3118.49 6600.07 3116.53 6601.89 3112.16 6602.98 3107.52 6603.31 3102.8 6609.4 3100.68 6615.03 3097.42 6619.92 3093.21 6624.17 3095.28 6628.73 3096.66 6633.43 3097.27 6639.59 3090.5 6644.22 3082.48 6647 3073.76 6644.12 3070 6640.65 3066.74 6636.72 3064.09 6637.93 3057.75 6637.93 3051.25 6636.72 3044.91 6640.65 3042.26 6644.12 3039 6647 3035.24 6644.22 3026.52 6639.59 3018.5 6633.43 3011.73 6628.73 3012.34 6624.17 3013.72 6619.92 3015.79 6615.03 3011.58 6609.4 3008.32 6603.31 3006.2 6602.98 3001.48 6601.89 2996.84 6600.07 2992.47ZM6586.5 3029.94C6600.05 3029.94 6611.06 3040.95 6611.06 3054.5 6611.06 3068.05 6600.05 3079.06 6586.5 3079.06 6572.95 3079.06 6561.94 3068.05 6561.94 3054.5 6561.94 3040.95 6572.95 3029.94 6586.5 3029.94Z" fill="#13227A" fill-rule="evenodd" fill-opacity="1"/><path d="M6600.07 2992.47C6591.13 2990.51 6581.87 2990.51 6572.93 2992.47 6571.11 2996.84 6570.02 3001.48 6569.69 3006.2 6563.6 3008.32 6557.97 3011.58 6553.08 3015.79 6548.83 3013.72 6544.27 3012.34 6539.57 3011.73 6533.41 3018.5 6528.78 3026.52 6526 3035.24 6528.88 3039 6532.35 3042.26 6536.28 3044.91 6535.07 3051.25 6535.07 3057.75 6536.28 3064.09 6532.35 3066.74 6528.88 3070 6526 3073.76 6528.78 3082.48 6533.41 3090.5 6539.57 3097.27 6544.27 3096.66 6548.83 3095.28 6553.08 3093.21 6557.97 3097.42 6563.6 3100.68 6569.69 3102.8 6570.02 3107.52 6571.11 3112.16 6572.93 3116.53 6581.87 3118.49 6591.13 3118.49 6600.07 3116.53 6601.89 3112.16 6602.98 3107.52 6603.31 3102.8 6609.4 3100.68 6615.03 3097.42 6619.92 3093.21 6624.17 3095.28 6628.73 3096.66 6633.43 3097.27 6639.59 3090.5 6644.22 3082.48 6647 3073.76 6644.12 3070 6640.65 3066.74 6636.72 3064.09 6637.93 3057.75 6637.93 3051.25 6636.72 3044.91 6640.65 3042.26 6644.12 3039 6647 3035.24 6644.22 3026.52 6639.59 3018.5 6633.43 3011.73 6628.73 3012.34 6624.17 3013.72 6619.92 3015.79 6615.03 3011.58 6609.4 3008.32 6603.31 3006.2 6602.98 3001.48 6601.89 2996.84 6600.07 2992.47ZM6586.5 3029.94C6600.05 3029.94 6611.06 3040.95 6611.06 3054.5 6611.06 3068.05 6600.05 3079.06 6586.5 3079.06 6572.95 3079.06 6561.94 3068.05 6561.94 3054.5 6561.94 3040.95 6572.95 3029.94 6586.5 3029.94Z" fill="#1C99DC" fill-rule="evenodd" fill-opacity="1"/><path d="M6587 3023C6604.11 3023 6618 3037.11 6618 3054.5 6618 3071.89 6604.11 3086 6587 3086 6569.89 3086 6556 3071.89 6556 3054.5 6556 3037.11 6569.89 3023 6587 3023ZM6587 3029.75C6573.56 3029.75 6562.64 3040.84 6562.64 3054.5 6562.64 3068.16 6573.56 3079.25 6587 3079.25 6600.44 3079.25 6611.36 3068.16 6611.36 3054.5 6611.36 3040.84 6600.44 3029.75 6587 3029.75Z" fill="#1C99DC" fill-rule="evenodd" fill-opacity="1"/><path d="M6669.11 2924.52C6664.9 2920.65 6659.91 2917.74 6654.48 2916 6652.14 2917.81 6650.11 2919.99 6648.46 2922.45 6644.52 2921.69 6640.48 2921.69 6636.54 2922.45 6634.89 2919.99 6632.86 2917.81 6630.52 2916 6625.09 2917.74 6620.1 2920.65 6615.89 2924.52 6616.28 2927.47 6617.13 2930.34 6618.42 2933.01 6615.8 2936.08 6613.78 2939.62 6612.46 2943.44 6609.52 2943.65 6606.63 2944.34 6603.91 2945.48 6602.7 2951.09 6602.7 2956.91 6603.91 2962.52 6606.63 2963.66 6609.52 2964.35 6612.46 2964.56 6613.78 2968.38 6615.8 2971.92 6618.42 2974.99 6617.13 2977.66 6616.28 2980.53 6615.89 2983.48 6620.1 2987.35 6625.09 2990.26 6630.52 2992 6632.86 2990.19 6634.89 2988.01 6636.54 2985.55 6640.48 2986.3 6644.52 2986.3 6648.46 2985.55 6650.11 2988.01 6652.14 2990.19 6654.48 2992 6659.91 2990.26 6664.9 2987.35 6669.11 2983.48 6668.72 2980.53 6667.87 2977.66 6666.58 2974.99 6669.2 2971.92 6671.22 2968.38 6672.54 2964.56 6675.48 2964.35 6678.37 2963.66 6681.09 2962.52 6682.3 2956.91 6682.3 2951.09 6681.09 2945.48 6678.37 2944.34 6675.48 2943.65 6672.54 2943.44 6671.22 2939.62 6669.2 2936.08 6666.58 2933.01 6667.87 2930.34 6668.72 2927.47 6669.11 2924.52ZM6650.14 2940.64C6657.44 2944.9 6659.95 2954.34 6655.73 2961.71 6651.51 2969.08 6642.16 2971.61 6634.86 2967.36 6627.56 2963.1 6625.05 2953.66 6629.27 2946.29 6633.49 2938.92 6642.84 2936.39 6650.14 2940.64Z" fill="#40A5DD" fill-rule="evenodd" fill-opacity="1"/><path d="M6750.97 3055.42C6752.34 3049.21 6752.34 3042.79 6750.97 3036.58 6747.91 3035.32 6744.66 3034.56 6741.35 3034.33 6739.86 3030.1 6737.58 3026.19 6734.63 3022.8 6736.08 3019.85 6737.04 3016.68 6737.47 3013.42 6732.73 3009.14 6727.11 3005.93 6721 3004 6718.36 3006 6716.07 3008.41 6714.22 3011.13 6709.78 3010.29 6705.22 3010.29 6700.78 3011.13 6698.93 3008.41 6696.64 3006 6694 3004 6687.89 3005.93 6682.27 3009.14 6677.53 3013.42 6677.96 3016.68 6678.92 3019.85 6680.37 3022.8 6677.42 3026.19 6675.14 3030.1 6673.65 3034.33 6670.34 3034.56 6667.09 3035.32 6664.03 3036.58 6662.66 3042.79 6662.66 3049.21 6664.03 3055.42 6667.09 3056.68 6670.34 3057.44 6673.65 3057.67 6675.14 3061.9 6677.42 3065.81 6680.37 3069.2 6678.92 3072.15 6677.96 3075.32 6677.53 3078.58 6682.27 3082.86 6687.89 3086.07 6694 3088 6696.64 3086 6698.93 3083.59 6700.78 3080.87 6705.22 3081.71 6709.78 3081.71 6714.22 3080.87 6716.07 3083.59 6718.36 3086 6721 3088 6727.11 3086.07 6732.73 3082.86 6737.47 3078.58 6737.04 3075.32 6736.08 3072.15 6734.63 3069.2 6737.58 3065.81 6739.86 3061.9 6741.35 3057.67 6744.66 3057.44 6747.91 3056.68 6750.97 3055.42ZM6724.71 3046C6724.71 3055.41 6717 3063.05 6707.5 3063.05 6698 3063.05 6690.29 3055.41 6690.29 3046 6690.29 3036.59 6698 3028.95 6707.5 3028.95 6717 3028.95 6724.71 3036.59 6724.71 3046Z" fill="#6BB4E1" fill-rule="evenodd" fill-opacity="1"/><g><g><g><path d="M171.438 17.5833 39.5625 17.5833C27.6938 17.5833 17.5833 27.2542 17.5833 39.5625L17.5833 171.438C17.5833 183.746 27.2542 193.417 39.5625 193.417L171.438 193.417C183.746 193.417 193.417 183.746 193.417 171.438L193.417 39.5625C193.417 27.2542 183.746 17.5833 171.438 17.5833ZM39.5625 35.1667 171.438 35.1667C174.075 35.1667 175.833 36.925 175.833 39.5625L175.833 121.765 156.492 87.9168C152.975 82.202 147.261 78.6855 140.667 78.2458 134.073 77.8063 127.919 80.8833 123.963 86.598L98.4668 122.644 78.6855 98.4668C74.7293 93.6313 68.575 90.9938 61.9813 91.4333 55.827 91.873 50.1125 95.3895 47.0355 101.104L35.1667 121.325 35.1667 39.5625C35.1667 36.925 37.3645 35.1667 39.5625 35.1667Z" fill="#1296DB" fill-rule="nonzero" fill-opacity="1" transform="matrix(1.00474 0 0 1 5766 2940)"/><path d="M94.5105 65.9375C94.5105 73.2207 100.415 79.125 107.698 79.125 114.981 79.125 120.886 73.2207 120.886 65.9375 120.886 58.6543 114.981 52.75 107.698 52.75 100.415 52.75 94.5105 58.6543 94.5105 65.9375Z" fill="#1296DB" fill-rule="nonzero" fill-opacity="1" transform="matrix(1.00474 0 0 1 5766 2940)"/></g></g></g></g></g></svg>